<svg width="800" height="800" version="1.1" viewBox="0 0 211.7 211.7" xmlns="http://www.w3.org/2000/svg">
 <g stroke-miterlimit="12.3">
  <path d="m174.4 73.68c1.505 32.49-29.75 69.29-66.28 67.69-40.72-1.774-65.42-25.14-66.71-66.5-1.17-37.56 28.44-63.72 67.32-65.88 40.71-2.263 63.68 21.71 65.67 64.68z" fill-opacity=".25" opacity=".5" stroke-width="0" style="mix-blend-mode:multiply;paint-order:markers fill stroke"/>
  <path d="m106.3 137.8c-39.06-1.262-65.08-28.28-66.77-67.07-1.595-36.74 29.26-64.93 66.03-65.81 42.43-1.015 66.04 34.1 65.96 67.85-0.07531 29.96-22.81 66.4-65.22 65.03z" fill="#646464" stroke="#646464" stroke-linecap="round" stroke-linejoin="round" stroke-width="1.323" style="paint-order:markers fill stroke"/>
  <g stroke-width="0">
   <path d="m170.1 73.24c-0.7336 32.57-26.77 64.79-63.51 63.3-36.22-1.464-65.25-25.29-66.51-65.77-1.145-36.76 28.08-62.78 64.81-64.56 39.49-1.908 66.04 30.26 65.21 67.02z" fill="#d5f6ff" style="paint-order:markers fill stroke"/>
   <path d="m164.7 72.81c-1.794 28.47-23.54 53.62-56.23 55.45-34.33 1.923-62.66-24.21-60.75-56.9 1.921-32.99 27.21-57.82 59.95-58.36 37.03-0.6151 59.09 27.13 57.03 59.81z" fill="#fff" style="paint-order:markers fill stroke"/>
   <path d="m151.1 73.42c1.095 20.45-14.86 41.43-43.18 43.06-24.21 1.39-45.08-18.32-46.1-47.69-0.8436-24.23 22.19-44.19 46.67-40.78 28.07 3.913 41.32 21.2 42.62 45.41z" fill="#d5f6ff" style="paint-order:markers fill stroke"/>
   <path d="m146.2 71.37c0.3369 20.17-16.29 40.72-40.56 41.05-22.39 0.3063-36.96-15.75-39.05-40.4-1.891-22.27 18.54-42.72 40.84-41.11 21.63 1.566 38.37 16.7 38.77 40.46z" fill="#fff" style="paint-order:markers fill stroke"/>
  </g>
 </g>
 <g transform="matrix(.8911 -.3807 .3807 .8911 -85.3 63.87)" stroke-miterlimit="12.3">
  <path d="m125.3 38.69c2.504-4.57 6.13-10.75 14.84-10.93 8.104-0.1674 16.1 7.233 16.1 7.233 10.59-21.06 29.23-6.975 30.84-0.5806 13.05-9.426 39.1 22.3 13.64 28.23-1.472 13.2-3.232 36.5-5.39 54.68-0.835 7.036 1.361 23.53-2.924 21.06-28.13-16.25-48.42-6.152-65.08-9.315-4.458-0.8468-8.247-7.021-6.84-12.32 1.511-5.695-6.921-35.74-7.79-49.84 1.214-6.002 7.351-25.81 12.61-28.22z" fill-opacity=".25" stroke-width="0" style="paint-order:markers fill stroke"/>
  <g transform="translate(45.27 -200.4)" stroke-width="1.032">
   <path d="m77.82 236.4c2.504-4.57 6.13-10.75 14.84-10.93 8.104-0.1674 16.1 7.233 16.1 7.233 10.59-21.06 29.23-6.975 30.84-0.5806 13.05-9.426 39.1 22.3 13.64 28.23-1.472 13.2-2.613 36.58-5.39 54.68-0.62 4.042 2.169 10.4-2.511 12.01-10.01 3.444-53.12 2.896-69.78-0.2672-4.458-0.8468-4.684-5.73-3.277-11.03 1.511-5.695-1.388-38.17-2.257-52.27-18.72-3.899-4.862-26.99 7.796-27.07z" fill="#b85455" stroke-width="0" style="paint-order:markers fill stroke"/>
   <path d="m80.36 240.1c1.659-4.452 4.845-10.65 13.86-10.58 7.554 0.05726 15.95 9.212 15.95 9.212 8.602-23.49 25.9-9.15 27.4-3.191 12.16-8.784 37.55 19.39 13.53 23.3-1.372 12.3-4.204 41.69-5.922 56.16-0.4556 3.837 2.174 8.039-1.872 10.14-3.608 1.873-47.03 3.011-64.94-0.3908-4.155-0.7891-4.353-5.288-3.349-8.237 2.782-8.17-1.49-42.09-2.3-55.23-17.08 0.1603-5.309-24.75 7.639-21.19z" fill="#e9afaf" stroke-width="0" style="paint-order:markers fill stroke"/>
   <path d="m86.15 287.1c-7.908-14.78 13.39-28.72 19.32-11.02 5.394 16.09-16.46 16.36-19.32 11.02z" fill="#fff" stroke="#b85455" stroke-linecap="round" stroke-linejoin="round" stroke-width="2.73" style="paint-order:markers fill stroke"/>
   <path d="m91.3 282.1c-2.408-6.529 5.697-10.61 7.876-4.615 2.463 6.78-6.432 8.53-7.876 4.615z" fill="#b85455" stroke-width="0" style="paint-order:markers fill stroke"/>
   <path d="m114.9 281.9c-7.51-15.21 12.47-26.79 18.49-9.769 5.51 15.59-15.28 16.28-18.49 9.769z" fill="#fff" stroke="#b85455" stroke-linecap="round" stroke-linejoin="round" stroke-width="2.73" style="paint-order:markers fill stroke"/>
   <g fill="#b85455" stroke-width="0">
    <path d="m119.7 278.2c-4.108-6.057 4.212-11.66 6.745-4.986 2.512 6.618-5.164 7.317-6.745 4.986z" style="paint-order:markers fill stroke"/>
    <path d="m134.6 230.7c4.917 6.947 4.375 11.82 3.339 14.36-6.785-3.231-12.07 2.768-11.44 5.621 5.51-6.153 9.669-3.599 11.07-2.117 3.71 3.927 5.002 10.13 0.6028 14.7 1.696-0.2458 3.597-1.794 4.068-2.515 2.193 0.2906 4.886 0.03638 6.668-1.662-3.243 0.1745-5.586-0.2735-5.466-0.6398 1.133-3.451 0.3957-7.295-2.659-11.19 1.094-4.238 3.68-14.75-6.854-22.01-2.014-1.389 0.669 5.447 0.669 5.447z" style="paint-order:markers fill stroke"/>
    <path d="m70.17 242.1c11.92-6.05 15.2 3.441 16.9 7.675-10.71-2.702-11.61 12.84-3.834 11.98-7.806-6.496 1.327-12.34 6.348-7.957 0.6414-3.852 2.419-7.751 6.122-7.307 2.684 0.3218 4.883 2.18 4.546 6.283 4.662-9.128-9.03-12.46-11.22-4.873-1.059-4.585-1.829-7.861-6.763-10.57-3.152-1.729-13.19 4.53-12.1 4.765z" style="paint-order:markers fill stroke"/>
    <path d="m115 296.4c-12.38 1.882-6.976 9.877-2.56 9.003-6.527 2.58-6.606 6.99 2.408 7.561-8.03 3.964-14-4.08-8.079-7.677-5.687-1.587-2.823-13.09 8.231-8.887z" style="paint-order:markers fill stroke"/>
    <path d="m112 234.5c-5.949 12.24 1.654 11.79 1.016 14.91-0.1603 0.7856-7.485 4.891-4.614 9.969-2.25-1.56-4.51-4.363 1.51-9.969-4.546-1.888-3.867-9.874-1.722-14.33 0.6543-1.36 3.914-1.172 3.811-0.5814z" style="paint-order:markers fill stroke"/>
   </g>
  </g>
 </g>
 <g transform="translate(0 -21.25)" stroke-miterlimit="12.3">
  <path d="m108.6 49.27c3.308-3.814 6.665-5.463 14.95-3.847 7.71 1.503 16.08 7.245 16.08 7.245 14.34-17.78 29.11-0.6136 29.32 5.773 14.29-6.252 32.46 29.14 7.128 29.53-4.1 12.2-10.88 33.6-15.28 49.47-1.851 6.669-3.881 8.989-9.418 9.537-10.21 1.011-47.36-5.611-62.48-12.02-4.049-1.716-4.459-6.19-1.684-10.72 4.006-6.542 7.779-36 9.421-50.37-15.23-9.667-0.2096-20.26 11.96-24.6z" fill-opacity=".25" stroke-width="0" style="paint-order:markers fill stroke"/>
  <g transform="matrix(.9471 .205 -.205 .9471 -19.94 -216.3)" stroke-width="1.032">
   <path d="m190.4 238.1c2.504-4.57 6.13-10.75 14.84-10.93 8.104-0.1674 16.1 7.233 16.1 7.233 10.59-21.06 29.23-6.975 30.84-0.5806 13.05-9.426 39.1 22.3 13.64 28.23-1.472 13.2-3.636 36.26-4.613 53.23-0.4103 7.131 2.984 11.69-2.481 13.45-10.08 3.249-53.93 2.91-70.58-0.2531-4.458-0.8468-4.684-5.73-3.277-11.03 1.511-5.695-1.388-38.17-2.257-52.27-18.72-3.899-4.862-26.99 7.796-27.07z" fill="#b85455" stroke-width="0" style="paint-order:markers fill stroke"/>
   <path d="m193 241.9c1.659-4.452 4.845-10.65 13.86-10.58 7.554 0.05726 15.95 9.212 15.95 9.212 8.602-23.49 25.9-9.15 27.4-3.191 12.16-8.784 37.55 19.39 13.53 23.3-1.372 12.3-4.204 41.69-5.922 56.16-0.05758 0.485-0.02128-0.4916 0 0 0.1471 3.398 2.842 8.386-0.6933 10.22-3.608 1.873-48.19 2.616-66.1-0.786-4.155-0.7891-4.369-4.974-3.365-7.923 2.782-8.17-1.49-42.09-2.3-55.23-17.08 0.1603-5.309-24.75 7.639-21.19z" fill="#e9afaf" stroke-width="0" style="paint-order:markers fill stroke"/>
   <path d="m202.4 284.9c-10.29-13.24 13.21-28.02 18.75-11.74 5.462 16.07-13.89 17.99-18.75 11.74z" fill="#fff" stroke="#b85455" stroke-linecap="round" stroke-linejoin="round" stroke-width="2.73" style="paint-order:markers fill stroke"/>
   <path d="m209.1 280.3c-3.187-5.272 4.035-10.64 6.245-5.997 3.458 7.27-4.334 9.158-6.245 5.997z" fill="#b85455" stroke-width="0" style="paint-order:markers fill stroke"/>
   <path d="m232.5 285.9c-9.241-13.89 14.58-29.1 18.59-11.5 3.497 15.36-14.92 17.01-18.59 11.5z" fill="#fff" stroke="#b85455" stroke-linecap="round" stroke-linejoin="round" stroke-width="2.73" style="paint-order:markers fill stroke"/>
   <g fill="#b85455" stroke-width="0">
    <path d="m236.3 281.2c-3.843-5.761 4.987-10.68 6.553-4.86 1.833 6.815-5.074 7.077-6.553 4.86z" style="paint-order:markers fill stroke"/>
    <path d="m247.2 232.4c4.917 6.947 4.753 12.2 3.717 14.74-6.785-3.231-13.12-0.393-13.12 3.974 5.51-6.153 10.63-2.422 12.37-0.8483 3.156 2.852 5.79 9.289 1.39 13.87 1.492-0.2723 2.594-0.999 3.281-1.678 2.193 0.2906 5.203 0.1732 6.985-1.525-3.243 0.1745-5.903-0.4104-5.782-0.7766 1.133-3.451 0.3957-7.295-2.659-11.19 1.094-4.238 3.68-14.75-6.854-22.01-2.014-1.389 0.669 5.447 0.669 5.447z" style="paint-order:markers fill stroke"/>
    <path d="m182.8 243.8c11.92-6.05 16.3 5.709 14.41 8.933-9.8-0.9609-8.286 10.53-1.341 10.72-7.806-6.496-0.933-11.34 4.088-6.955 1.387-8.328 9.648-5.869 7.514 1.401 5.551-8.388-5.328-11.95-7.713-7.235 0.5482-5.103 0.07466-8.928-4.859-11.63-3.152-1.729-13.19 4.53-12.1 4.765z" style="paint-order:markers fill stroke"/>
    <path d="m223.3 297.3c12.76 1.976 4.45 9.382 0 9.294 9.202 2.875 7.843 7.145 0 8.575 7.237 3.09 12.44-3.592 6.511-7.825 6.578-2.478 3.973-14.25-6.511-10.04z" style="paint-order:markers fill stroke"/>
    <path d="m224.1 236.7c5.684 6.818 3.79 11.58 2.382 14.51 3.437 1.669 5.287 5.689 1.255 10.09 1.631-6.167-4.383-8.291-4.637-9.594-0.2856-1.467 5.822-4.387-2.261-13.07-1.028-1.105 3.363-2.532 3.261-1.941z" style="paint-order:markers fill stroke"/>
   </g>
  </g>
 </g>
 <g transform="matrix(1.051 0 0 1.051 -11.33 -11.87)" fill="#b85455" stroke-miterlimit="12.3" stroke-width="0">
  <path transform="scale(1)" d="m55.349 177.58h-3.5244v-24.867h-8.7327v-3.0936h20.951v3.0936h-8.6935zm27.96-10.534q0 5.2083-2.6629 8.067-2.6237 2.8587-7.1271 2.8587-2.7804 0-4.9733-1.2531-2.1538-1.2923-3.4069-3.7202-1.2531-2.4671-1.2531-5.9523 0-5.2083 2.6237-8.0278t7.1271-2.8195q2.8587 0 5.0125 1.2923 2.193 1.2531 3.4069 3.681 1.2531 2.3888 1.2531 5.874zm-15.86 0q0 3.7202 1.4489 5.9132 1.4881 2.1538 4.6992 2.1538 3.172 0 4.66-2.1538 1.4881-2.193 1.4881-5.9132t-1.4881-5.8348-4.6992-2.1146-4.66 2.1146-1.4489 5.8348zm29.253-10.808q3.8377 0 5.6782 1.6839t1.8405 5.3649v14.293h-2.5062l-0.66572-2.9762h-0.15664q-1.3706 1.723-2.8978 2.5454-1.4881 0.82236-4.151 0.82236-2.8587 0-4.7384-1.4881-1.8797-1.5272-1.8797-4.7384 0-3.1328 2.4671-4.8167 2.4671-1.723 7.597-1.8797l3.5636-0.11748v-1.2531q0-2.6237-1.1356-3.6419t-3.2111-1.0182q-1.6447 0-3.1328 0.50908-1.4881 0.46992-2.7804 1.0965l-1.0573-2.5846q1.3706-0.74404 3.2503-1.2531 1.8797-0.54824 3.916-0.54824zm1.0182 11.2q-3.916 0.15664-5.4432 1.2531-1.4881 1.0965-1.4881 3.0936 0 1.7622 1.0573 2.5846 1.0965 0.82236 2.7804 0.82236 2.6629 0 4.4251-1.4489 1.7622-1.4881 1.7622-4.5426v-1.8797zm26.668 4.3468q0 3.0545-2.2713 4.6209t-6.109 1.5664q-2.193 0-3.7985-0.35244-1.5664-0.35244-2.7804-0.979v-3.1328q1.2531 0.62656 3.0153 1.1748 1.8014 0.50908 3.6419 0.50908 2.6237 0 3.7985-0.82236 1.1748-0.86152 1.1748-2.2713 0-0.7832-0.43076-1.4098t-1.5664-1.2531q-1.0965-0.62656-3.172-1.4098-2.0363-0.7832-3.4852-1.5664t-2.2321-1.8797-0.7832-2.8195q0-2.6629 2.1538-4.1118 2.193-1.4489 5.7174-1.4489 1.9188 0 3.5636 0.3916 1.6839 0.35244 3.1328 1.0182l-1.1748 2.7412q-1.3314-0.54824-2.7804-0.93984t-2.9762-0.3916q-2.1146 0-3.2503 0.70488-1.0965 0.66572-1.0965 1.8405 0 0.86152 0.50908 1.4881 0.50908 0.5874 1.6839 1.1748 1.214 0.54824 3.2111 1.3314 1.9972 0.74404 3.4069 1.5272t2.1538 1.9188q0.74404 1.0965 0.74404 2.7804zm12.1 3.3678q0.7832 0 1.6056-0.11748 0.82236-0.15664 1.3314-0.31328v2.6237q-0.54824 0.27412-1.5664 0.43076-1.0182 0.1958-1.958 0.1958-1.6447 0-3.0545-0.54824-1.3706-0.5874-2.2321-1.9972t-0.86152-3.9552v-12.218h-2.9762v-1.6447l3.0153-1.3706 1.3706-4.4642h2.0363v4.8167h6.0698v2.6629h-6.0698v12.14q0 1.9188 0.90068 2.8587 0.93984 0.90068 2.3888 0.90068zm15.233-18.953q2.702 0 4.6209 1.1748 1.958 1.1748 2.9762 3.3286 1.0573 2.1146 1.0573 4.9733v2.0755h-14.372q0.0783 3.5636 1.8014 5.4432 1.7622 1.8405 4.895 1.8405 1.9972 0 3.5244-0.35244 1.5664-0.3916 3.2111-1.0965v3.0153q-1.6056 0.70488-3.172 1.0182-1.5664 0.35244-3.7202 0.35244-2.9762 0-5.2866-1.214-2.2713-1.214-3.5636-3.6027-1.2531-2.4279-1.2531-5.9132 0-3.4461 1.1356-5.9132 1.1748-2.4671 3.2503-3.7985 2.1146-1.3314 4.895-1.3314zm-0.0392 2.8195q-2.4671 0-3.916 1.6056-1.4098 1.5664-1.6839 4.3859h10.691q-0.0392-2.6629-1.2531-4.3076-1.214-1.6839-3.8377-1.6839zm21.46 18.953q-3.916 0-6.2656-2.702-2.3496-2.7412-2.3496-8.1453t2.3496-8.1453q2.3888-2.7804 6.3048-2.7804 2.4279 0 3.9552 0.90068 1.5664 0.90068 2.5454 2.193h0.23496q-0.0392-0.50908-0.15664-1.4881-0.0783-1.0182-0.0783-1.6056v-8.3802h3.4461v29.762h-2.7804l-0.50908-2.8195h-0.15664q-0.93984 1.3314-2.5062 2.2713t-4.0335 0.93984zm0.54824-2.8587q3.3286 0 4.66-1.8014 1.3706-1.8405 1.3706-5.5216v-0.62656q0-3.916-1.2923-5.9915-1.2923-2.1146-4.7775-2.1146-2.7804 0-4.1901 2.2321-1.3706 2.193-1.3706 5.9132 0 3.7594 1.3706 5.8348 1.4098 2.0755 4.2293 2.0755z" style="paint-order:markers fill stroke" aria-label="Toasted"/>
  <path transform="scale(1)" d="m73.512 180.43q5.2474 0 7.9103 1.5664 2.702 1.5272 2.702 5.3649 0 2.4671-1.3706 4.1118-1.3706 1.6056-3.9552 2.0755v0.1958q1.7622 0.27412 3.172 1.0182 1.4489 0.74404 2.2713 2.1146t0.82236 3.5636q0 3.7985-2.6237 5.874-2.5846 2.0755-7.088 2.0755h-9.8292v-27.96zm0.70488 11.905q3.6027 0 4.9342-1.1356 1.3314-1.1748 1.3314-3.4461 0-2.3104-1.6447-3.2894-1.6056-1.0182-5.1691-1.0182h-4.6209v8.8893zm-5.1691 2.937v10.142h5.639q3.7202 0 5.1691-1.4489t1.4489-3.7985q0-2.193-1.5272-3.5244-1.4881-1.3706-5.3649-1.3706zm31.25-8.2628q0.5874 0 1.2531 0.0783 0.70488 0.0392 1.214 0.15664l-0.43076 3.172q-0.50908-0.11748-1.1356-0.1958-0.5874-0.0783-1.1356-0.0783-1.6056 0-3.0153 0.90068-1.4098 0.86152-2.2713 2.4671-0.82236 1.5664-0.82236 3.681v11.2h-3.4461v-20.99h2.8195l0.3916 3.8377h0.15664q1.0182-1.723 2.6237-2.9762t3.7985-1.2531zm13.549 0.0392q3.8377 0 5.6782 1.6839t1.8405 5.3649v14.293h-2.5062l-0.66572-2.9762h-0.15664q-1.3706 1.723-2.8978 2.5454-1.4881 0.82236-4.151 0.82236-2.8587 0-4.7384-1.4881-1.8797-1.5272-1.8797-4.7384 0-3.1328 2.4671-4.8167 2.4671-1.723 7.597-1.8797l3.5636-0.11748v-1.2531q0-2.6237-1.1356-3.6419t-3.2111-1.0182q-1.6447 0-3.1328 0.50908-1.4881 0.46992-2.7804 1.0965l-1.0573-2.5846q1.3706-0.74404 3.2503-1.2531 1.8797-0.54824 3.916-0.54824zm1.0182 11.2q-3.916 0.15664-5.4432 1.2531-1.4881 1.0965-1.4881 3.0936 0 1.7622 1.0573 2.5846 1.0965 0.82236 2.7804 0.82236 2.6629 0 4.4251-1.4489 1.7622-1.4881 1.7622-4.5426v-1.8797zm14.763-18.718q0.7832 0 1.3706 0.54824 0.62656 0.50908 0.62656 1.6447 0 1.0965-0.62656 1.6447-0.5874 0.54824-1.3706 0.54824-0.86152 0-1.4489-0.54824t-0.5874-1.6447q0-1.1356 0.5874-1.6447 0.5874-0.54824 1.4489-0.54824zm1.6839 7.8712v20.99h-3.4461v-20.99zm16.76-0.3916q3.7594 0 5.6782 1.8405 1.9188 1.8014 1.9188 5.874v13.667h-3.4069v-13.432q0-5.0516-4.6992-5.0516-3.4852 0-4.8167 1.958t-1.3314 5.639v10.886h-3.4461v-20.99h2.7804l0.50908 2.8587h0.1958q1.0182-1.6447 2.8195-2.4279 1.8014-0.82236 3.7985-0.82236zm27.764 15.586q0 3.0545-2.2713 4.6209t-6.109 1.5664q-2.193 0-3.7985-0.35244-1.5664-0.35244-2.7804-0.979v-3.1328q1.2531 0.62656 3.0153 1.1748 1.8014 0.50908 3.6419 0.50908 2.6237 0 3.7985-0.82236 1.1748-0.86152 1.1748-2.2713 0-0.7832-0.43076-1.4098t-1.5664-1.2531q-1.0965-0.62656-3.172-1.4098-2.0363-0.7832-3.4852-1.5664t-2.2321-1.8797-0.7832-2.8195q0-2.6629 2.1538-4.1118 2.193-1.4489 5.7174-1.4489 1.9188 0 3.5636 0.3916 1.6839 0.35244 3.1328 1.0182l-1.1748 2.7412q-1.3314-0.54824-2.7804-0.93984t-2.9762-0.3916q-2.1146 0-3.2503 0.70488-1.0965 0.66572-1.0965 1.8405 0 0.86152 0.50908 1.4881 0.50908 0.5874 1.6839 1.1748 1.214 0.54824 3.2111 1.3314 1.9972 0.74404 3.4069 1.5272t2.1538 1.9188q0.74404 1.0965 0.74404 2.7804z" style="paint-order:markers fill stroke" aria-label="Brains"/>
 </g>
</svg>
